<?xml version="1.0" encoding="UTF-8" standalone="no"?>
<!-- Created with Inkscape (http://www.inkscape.org/) -->

<svg
   xmlns:dc="http://purl.org/dc/elements/1.1/"
   xmlns:cc="http://creativecommons.org/ns#"
   xmlns:rdf="http://www.w3.org/1999/02/22-rdf-syntax-ns#"
   xmlns:svg="http://www.w3.org/2000/svg"
   xmlns="http://www.w3.org/2000/svg"
   xmlns:sodipodi="http://sodipodi.sourceforge.net/DTD/sodipodi-0.dtd"
   xmlns:inkscape="http://www.inkscape.org/namespaces/inkscape"
   width="122.70813mm"
   height="76.915367mm"
   viewBox="0 0 434.79259 272.53477"
   id="svg2"
   version="1.1"
   inkscape:version="0.91 r13725"
   sodipodi:docname="Tamburello.svg"
   inkscape:export-filename="C:\Users\Yasemin\Documents\BV-Aachen\website\images\Tamburello.png"
   inkscape:export-xdpi="31.041912"
   inkscape:export-ydpi="31.041912">
  <defs
     id="defs4" />
  <sodipodi:namedview
     id="base"
     pagecolor="#ffffff"
     bordercolor="#666666"
     borderopacity="1.0"
     inkscape:pageopacity="0.0"
     inkscape:pageshadow="2"
     inkscape:zoom="0.7"
     inkscape:cx="-267.31792"
     inkscape:cy="12.497141"
     inkscape:document-units="px"
     inkscape:current-layer="layer1"
     showgrid="false"
     fit-margin-top="0"
     fit-margin-left="0"
     fit-margin-right="0"
     fit-margin-bottom="0"
     inkscape:window-width="1536"
     inkscape:window-height="801"
     inkscape:window-x="-8"
     inkscape:window-y="-8"
     inkscape:window-maximized="1" />
  <metadata
     id="metadata7">
    <rdf:RDF>
      <cc:Work
         rdf:about="">
        <dc:format>image/svg+xml</dc:format>
        <dc:type
           rdf:resource="http://purl.org/dc/dcmitype/StillImage" />
        <dc:title />
      </cc:Work>
    </rdf:RDF>
  </metadata>
  <g
     inkscape:label="Ebene 1"
     inkscape:groupmode="layer"
     id="layer1"
     transform="translate(677.23695,-448.01625)">
    <path
       style="fill:#000000"
       d="m -536.52178,720.03587 c -3.89734,-0.46667 -9.36484,-1.6783 -12.15,-2.69251 -2.78516,-1.01421 -6.27893,-1.9442 -7.76393,-2.06666 -1.485,-0.12244 -3.53384,-0.29312 -4.55298,-0.37927 -1.01914,-0.0861 -2.63914,-0.76514 -3.6,-1.50885 -1.28845,-0.99728 -1.3575,-1.21741 -0.26305,-0.83865 0.81618,0.28246 1.74846,0.0856 2.07174,-0.43748 0.35771,-0.57879 0.041,-0.74126 -0.80896,-0.41507 -0.76821,0.29479 -1.39675,0.10036 -1.39675,-0.43207 0,-0.53242 -0.60517,-0.73581 -1.34483,-0.45198 -0.73966,0.28384 -1.08524,0.97988 -0.76796,1.54675 0.31809,0.56834 0.0164,0.50923 -0.67265,-0.13178 -1.06416,-0.99003 -1.05037,-1.28837 0.093,-2.01122 0.91427,-0.57802 0.98002,-0.85313 0.20612,-0.86252 -1.5184,-0.0184 -24.17148,-9.56071 -27.94009,-11.76938 -1.63704,-0.95942 -3.87568,-1.7444 -4.97474,-1.7444 -1.09907,0 -2.79717,-0.55702 -3.77356,-1.23781 -0.97639,-0.6808 -3.39526,-1.45782 -5.37526,-1.72672 -6.78562,-0.92152 -11.30276,-2.20424 -12.92168,-3.66934 -0.89103,-0.80637 -2.6961,-1.46613 -4.01127,-1.46613 -4.52933,0 -10.97862,-2.1885 -15.81143,-5.36545 -10.75502,-7.07002 -12.52748,-8.44212 -19.23062,-14.88695 -5.55549,-5.3414 -6.975,-7.23748 -6.975,-9.3167 0,-1.43577 -0.56807,-3.08195 -1.26238,-3.65819 -2.91549,-2.41964 -6.08873,-11.27629 -6.94252,-19.37685 -1.29233,-12.26141 -0.38345,-18.2864 3.70852,-24.5838 3.5851,-5.51734 6.91795,-8.20202 15.74638,-12.68402 3.52881,-1.7915 4.73167,-2.75646 3.47129,-2.78475 -4.46946,-0.10031 -3.07449,-5.8116 1.72311,-7.05479 3.59954,-0.93273 4.16873,-3.12908 1.16552,-4.49743 -2.34543,-1.06865 -3.86246,-4.70711 -2.72796,-6.54276 0.41044,-0.66411 1.9882,-0.87471 4.26514,-0.5693 6.47962,0.8691 9.18601,-1.44633 15.19315,-12.99837 11.74973,-22.59535 30.58724,-40.86299 54.79286,-53.13528 15.58044,-7.89931 26.63616,-11.26487 45.35967,-13.8083 15.84833,-2.15285 30.75515,-1.67668 47.92761,1.53097 l 5.5704,1.04049 7.9296,-8.08884 c 4.36129,-4.44886 5.55175,-5.57157 2.64547,-2.49492 -3.41456,3.61474 -5.03712,5.99363 -4.58595,6.72365 0.41997,0.67951 0.33207,0.90342 -0.22056,0.56188 -1.02853,-0.63566 -4.44881,2.70026 -3.61916,3.5299 0.29102,0.29103 -0.92148,2.79683 -2.69446,5.56844 -8.51386,13.30932 -12.72091,26.72996 -13.46106,42.94138 -1.31148,28.72499 10.36844,57.10373 33.46533,81.31093 53.99402,46.84579 132.37942,72.09967 190.23176,29.81933 7.36582,-5.55032 16.59079,-15.01116 15.8328,-16.23762 -0.22937,-0.37113 0.39352,-0.46281 1.3842,-0.20375 2.89105,0.75603 2.15821,2.69797 -3.95559,10.48177 -6.07154,7.73001 -9.94046,11.72905 -14.65816,15.15114 -1.57576,1.143 -5.01826,3.76208 -7.65,5.82017 -16.22553,24.61366 -72.97539,23.26231 -136.7279,14.71552 l -8.35475,-3.62365 -2.91008,2.82056 c -2.27943,2.20931 -3.75333,2.84654 -6.80118,2.94042 -3.08004,0.0949 -4.99178,0.93778 -9.17168,4.0439 -6.03475,4.48447 -16.0303,10.47735 -22.61942,13.56156 -11.67813,5.46628 -27.70605,10.17069 -33.35529,9.79023 -1.61168,-0.10854 -3.48513,0.2631 -4.16321,0.82586 -1.68067,1.39484 -23.70108,2.09039 -32.56757,1.02871 z m 16.04107,-2.6679 c -0.28117,-0.45495 0.12017,-0.82719 0.89189,-0.82719 0.77171,0 1.43509,0.50625 1.47417,1.125 0.0504,0.79875 0.21253,0.76922 0.55894,-0.10183 0.41192,-1.03579 0.60894,-1.03579 1.26517,0 0.56919,0.89839 0.78096,0.92565 0.79105,0.10183 0.007,-0.61875 0.44269,-1.125 0.9669,-1.125 0.52422,0 0.64897,0.50625 0.27724,1.125 -0.46573,0.77521 -0.20598,0.7439 0.83542,-0.10069 0.83122,-0.67413 2.12396,-0.99059 2.87277,-0.70324 0.8344,0.32019 1.36145,0.0108 1.36145,-0.79931 0,-0.72697 0.3923,-1.32176 0.87176,-1.32176 0.47946,0 0.62235,0.70875 0.31754,1.575 -0.45242,1.2857 -0.33152,1.36836 0.65824,0.45 0.66686,-0.61875 2.04271,-1.1312 3.05746,-1.13878 1.52095,-0.0113 1.60789,-0.16701 0.495,-0.88622 -1.12321,-0.72588 -1.04761,-0.88599 0.45,-0.9531 0.99,-0.0444 2.73591,-0.25429 3.8798,-0.4665 1.41509,-0.26252 1.87348,-0.052 1.43426,0.65866 -0.46024,0.74469 -0.0239,0.84956 1.52021,0.36538 1.19115,-0.3735 2.87448,-0.72659 3.74073,-0.78463 1.67489,-0.11222 2.08811,-1.09646 0.7957,-1.89522 -0.42861,-0.26489 -0.57755,-1.53703 -0.33096,-2.82695 0.33547,-1.7549 0.87128,-2.23472 2.1284,-1.90597 0.92404,0.24164 1.90687,0.0724 2.18408,-0.37616 1.20439,-1.94874 3.10239,-0.70546 3.22035,2.10949 0.0896,2.13845 0.22791,2.37687 0.51435,0.88665 0.21547,-1.12109 0.77443,-1.80185 1.24211,-1.51281 0.46769,0.28905 0.61119,1.0038 0.31891,1.58835 -0.29228,0.58454 0.12404,0.25281 0.92514,-0.73719 1.36098,-1.68187 1.33736,-1.82953 -0.35986,-2.25 -1.68426,-0.41726 -1.64741,-0.529 0.50658,-1.53581 2.24816,-1.05084 2.31042,-1.0001 1.93247,1.575 -0.21478,1.46344 -0.13666,2.66081 0.17361,2.66081 1.09393,0 2.72336,-2.17696 2.66086,-3.555 -0.0455,-1.00159 -0.2934,-0.88737 -0.87934,0.405 -0.69114,1.52438 -0.78481,1.39719 -0.61175,-0.83059 0.11239,-1.44683 0.76698,-2.81562 1.45463,-3.04176 0.77125,-0.25364 1.00423,-0.013 0.60811,0.62789 -0.94507,1.52914 1.31164,0.81172 3.24162,-1.03054 2.22055,-2.11963 3.70873,-2.00801 2.99999,0.225 -0.32772,1.03258 -0.16173,1.8 0.38935,1.8 0.52837,0 0.96065,-1.03316 0.96065,-2.29593 0,-1.76916 0.71608,-2.59511 3.1211,-3.6 4.28032,-1.78842 4.9789,-1.6557 4.9789,0.94593 0,3.14359 1.73163,2.81687 2.385,-0.45 0.297,-1.485 0.88167,-2.7 1.29926,-2.7 0.41758,0 0.52613,0.6075 0.24121,1.35 -0.36095,0.94063 0.0655,1.35 1.40649,1.35 1.05849,0 2.14363,-0.57095 2.41141,-1.26877 0.26779,-0.69784 1.4228,-1.50369 2.56671,-1.79079 1.1439,-0.2871 3.3421,-1.70114 4.88488,-3.14231 1.54278,-1.44117 2.80504,-2.37682 2.80504,-2.07922 0,0.29761 0.486,0.0551 1.08,-0.53891 0.594,-0.594 2.94455,-1.08 5.22345,-1.08 3.52316,0 4.58342,-0.45392 7.08234,-3.03216 1.6164,-1.66769 3.06589,-3.79394 3.2211,-4.725 0.15523,-0.93106 0.83592,-1.55784 1.51267,-1.39284 0.67675,0.165 0.91498,-0.0155 0.5294,-0.40105 -1.01274,-1.01273 -3.45198,-1.24376 -2.85013,-0.26995 0.59116,0.95652 -0.14118,1.01267 -3.0499,0.23385 -1.34436,-0.35995 -1.72236,-0.79664 -1.04955,-1.21246 0.73669,-0.4553 0.61073,-0.81905 -0.42066,-1.21483 -0.95348,-0.36589 -1.25304,-0.21032 -0.85018,0.44151 0.36763,0.59485 0.1337,0.84368 -0.57201,0.60844 -2.80822,-0.93607 -1.56256,-2.21505 2.04561,-2.10031 5.18683,0.16493 8.2114,1.86866 7.58304,4.2715 -0.36365,1.39058 -0.22768,1.5958 0.54518,0.82295 29.11131,15.20237 135.4298,25.10112 8.76965,-13.45631 -10.11564,-4.13375 -28.63736,-16.83572 -37.35,-24.45074 -1.98,-1.73055 -2.79,-2.18215 -1.8,-1.00356 l 1.8,2.14291 -1.86908,-0.97918 c -3.29886,-1.72822 -17.83427,-17.61266 -22.84449,-24.9647 -6.21699,-9.12285 -14.59885,-26.64193 -17.4318,-36.43451 -3.54041,-12.23805 -4.51591,-20.40622 -3.95154,-33.08749 0.59979,-13.47736 2.64473,-22.16183 7.81787,-33.20102 1.99598,-4.2593 3.62904,-7.84476 3.62904,-7.96769 0,-0.12293 -2.73375,-0.77425 -6.075,-1.44737 -3.92739,-0.79121 -12.43829,-1.22029 -24.075,-1.21374 -16.38377,0.009 -18.90891,0.2267 -28.12261,2.42211 -35.91407,8.55747 -66.20736,31.20934 -81.03431,60.59354 -3.83288,7.59604 -8.07761,21.63866 -8.8319,29.21813 -2.59065,26.03207 5.51112,47.62573 25.17001,67.08563 13.10444,12.97179 24.05579,19.99623 41.23512,26.44908 15.19916,5.70906 25.55928,7.53835 43.03369,7.59846 16.66172,0.0573 25.98048,-1.28252 39.38372,-5.66249 12.74047,-4.16339 32.22618,-13.75356 38.23811,-18.81943 1.207,-1.01706 1.33411,-1.61089 0.5477,-2.55846 -0.81143,-0.97772 -0.71731,-1.11626 0.45318,-0.6671 2.69117,1.0327 1.54226,2.93701 -4.27749,7.0899 -12.58357,8.97944 -32.84242,17.48727 -49.80231,20.91478 -10.83842,2.19039 -37.07685,2.19388 -48.03661,0.006 -15.21112,-3.03603 -32.07597,-9.91817 -44.35142,-18.09873 -6.86549,-4.57528 -24.93028,-20.46999 -25.61961,-22.54199 -0.1731,-0.52032 -1.3881,-1.90174 -2.7,-3.06981 -1.3119,-1.16799 -1.77777,-1.79899 -1.03527,-1.40215 1.18963,0.63582 1.19425,0.51391 0.0389,-1.02622 -0.7211,-0.96128 -2.13861,-2.49166 -3.15,-3.40087 -1.01139,-0.9092 -1.2314,-1.38541 -0.4889,-1.05826 0.89238,0.39321 0.82086,0.16071 -0.21101,-0.68589 -0.85855,-0.7044 -1.2973,-1.54443 -0.975,-1.86674 0.32231,-0.3223 0.12034,-0.58601 -0.44882,-0.58601 -1.42005,0 -5.80724,-8.87102 -5.1868,-10.48785 0.27556,-0.7181 0.13425,-1.07896 -0.31403,-0.80191 -1.03159,0.63756 -3.21767,-6.183 -4.60264,-14.36024 -1.49244,-8.81177 -0.76128,-26.54025 1.36242,-33.03443 0.92347,-2.82394 2.0784,-4.88761 2.56652,-4.58594 0.4982,0.3079 0.60362,0.0892 0.24033,-0.49862 -0.89135,-1.44223 0.28215,-4.79093 1.43025,-4.08137 0.60152,0.37176 0.70384,-0.1419 0.28878,-1.44963 -0.48166,-1.51759 -0.35466,-1.84732 0.50653,-1.31507 0.82447,0.50956 0.98163,0.27323 0.55596,-0.83604 -0.6946,-1.8101 3.4001,-10.44889 4.95268,-10.44889 0.56916,0 0.77113,-0.26371 0.44882,-0.58601 -0.3223,-0.32231 0.11645,-1.16234 0.975,-1.86675 0.90612,-0.74341 0.99464,-0.98415 0.21101,-0.57379 5.42327,-11.38447 14.61382,-18.84551 22.275,-25.83653 10.39003,-9.52406 27.89889,-19.76738 42.73844,-25.00352 13.98545,-4.93477 26.02074,-6.7916 44.33656,-6.84031 10.33803,-0.0275 17.82833,0.37297 20.7,1.10673 6.0006,1.53325 10.48348,2.04426 9.91885,1.13068 -0.25218,-0.40804 0.17233,-0.98397 0.94337,-1.27984 2.16009,-0.8289 0.79379,-2.04996 -2.96527,-2.65006 -22.69933,-3.62372 -29.81287,-3.99708 -45.05742,-2.36487 -17.51305,1.87509 -32.29769,6.22276 -47.57669,13.99072 -18.87938,9.59842 -30.71703,19.21484 -43.66731,35.47355 -16.13366,20.25534 -24.43143,49.75624 -20.44073,72.67254 0.92482,5.31072 1.16361,5.73013 3,5.26922 2.52578,-0.63394 2.78891,1.88024 0.28011,2.6765 -1.17316,0.37235 -1.52007,1.01632 -1.09789,2.03804 0.33946,0.82153 0.83801,2.26754 1.10789,3.21335 1.00061,3.50673 6.52785,14.05785 9.61606,18.35641 1.75397,2.4414 3.18903,4.80024 3.18903,5.24187 0,1.88473 14.04044,15.83531 21.75983,21.62057 13.62597,10.21192 24.07894,15.97891 36.70242,20.24898 21.3411,7.21896 48.02439,9.74666 67.08775,6.35523 11.75255,-2.09082 25.89286,-6.27166 25.16963,-7.44187 -0.28221,-0.45662 0.0544,-0.61242 0.74822,-0.34621 1.87244,0.71852 20.6545,-8.17158 29.43215,-13.93109 9.16991,-6.0169 9.14784,-6.00602 8.43943,-4.15994 -0.30899,0.80522 -0.75931,1.26651 -1.00072,1.0251 -0.24141,-0.24141 -3.53263,1.71662 -7.31381,4.35116 -3.78119,2.63455 -8.6974,5.73006 -10.9249,6.87891 l -4.05,2.08882 2.7,0.61472 c 2.018,0.45944 2.20431,0.64162 0.7376,0.7212 -1.27394,0.0691 -2.09924,0.81691 -2.35244,2.13148 -0.33441,1.73624 -0.40751,1.67206 -0.51259,-0.45 -0.14974,-3.02364 -0.82776,-3.05924 -6.22748,-0.32701 -5.00964,2.53484 -17.85987,7.14944 -25.21987,9.05661 -8.79192,2.27821 -18.08091,3.25657 -30.77522,3.24138 -12.72182,-0.0152 -15.14316,-0.21747 -28.35,-2.36787 -21.03364,-3.42481 -48.11664,-15.92344 -57.74013,-26.64672 -3.01822,-3.36315 -6.60987,-6.62109 -6.60987,-5.99573 0,0.22805 1.0125,1.787 2.25,3.46434 2.93955,3.98433 3.02106,6.84784 0.0897,3.15 -3.36047,-4.23912 -6.04256,-6.91999 -10.80312,-10.79825 -4.84659,-3.94835 -5.55797,-4.05351 -19.43655,-2.87343 l -6.75,0.57395 8.1,-1.28702 c 9.718,-1.5441 15.41815,-1.49954 16.77146,0.1311 0.54942,0.66201 1.62745,1.20365 2.39563,1.20365 1.07402,0 0.91226,-0.51563 -0.70019,-2.23201 -1.3899,-1.47948 -2.73241,-2.07951 -3.98188,-1.77968 -4.43029,1.0631 -22.6762,1.00601 -26.80778,-0.0839 -2.38362,-0.62879 -4.13219,-0.81695 -3.88571,-0.41814 0.86845,1.40518 -2.05843,1.66142 -3.9382,0.34479 -4.00522,-2.80537 -1.49653,0.34418 4.24536,5.32986 14.18554,12.31731 22.30501,16.68314 31.82796,17.11387 2.13034,0.0964 4.27835,0.65986 4.77335,1.25223 1.26688,1.51608 8.44321,3.84425 11.89763,3.85987 1.59369,0.007 4.33976,0.82309 6.10237,1.81309 1.76262,0.99 3.81418,1.8 4.55904,1.8 0.74486,0 2.25129,0.58478 3.34763,1.29949 1.92704,1.25628 27.87668,12.39069 38.89333,16.68827 2.97,1.1586 5.805,2.39252 6.3,2.74204 1.30534,0.92171 7.36972,1.97125 12.86359,2.22626 2.61996,0.12161 4.99487,0.45239 5.27756,0.73509 0.87373,0.87372 11.16077,0.52097 10.61385,-0.36396 z m 22.545,-5.32719 c -0.99,-0.42542 -1.52937,-0.80195 -1.19861,-0.83674 0.33077,-0.0348 1.17452,-0.28318 1.87501,-0.55199 0.75903,-0.29127 1.27361,0.0724 1.27361,0.9 0,0.76381 -0.0337,1.36026 -0.075,1.32547 -0.0413,-0.0348 -0.88504,-0.41132 -1.87504,-0.83674 z m 42.75,-15.3 c 0,-0.495 0.42891,-0.9 0.95312,-0.9 0.52422,0 0.70281,0.405 0.39688,0.9 -0.30592,0.495 -0.73483,0.9 -0.95311,0.9 -0.21829,0 -0.39689,-0.405 -0.39689,-0.9 z m 0.97106,-3.225 c 0.0432,-1.04845 0.25644,-1.26171 0.54374,-0.54375 0.25999,0.64968 0.22802,1.42594 -0.071,1.725 -0.29907,0.29907 -0.51177,-0.2325 -0.47269,-1.18125 z m -43.17065,-5.1 c -1.27646,-4.30864 1.13777,-0.18993 1.69959,1.74702 0,2.00695 -0.68084,1.30712 -1.69959,-1.74702 z m 2.59959,2.57129 c 0,-0.19454 0.6075,-0.58682 1.35,-0.87176 0.7425,-0.28492 1.35,-0.12574 1.35,0.35371 0,0.47947 -0.6075,0.87176 -1.35,0.87176 -0.7425,0 -1.35,-0.15917 -1.35,-0.35371 z m 47.7,-0.4494 c 0,-0.60672 -0.46757,-0.81414 -1.03906,-0.46095 -0.66978,0.41396 -0.79361,0.24505 -0.34841,-0.4753 0.49073,-0.79402 0.9695,-0.83862 1.65405,-0.15406 0.52989,0.52989 0.68668,1.24017 0.34842,1.57842 -0.33825,0.33825 -0.615,0.1186 -0.615,-0.48811 z m 2.7,-4.14689 c 0.61622,-0.7425 1.67832,-1.35 2.3602,-1.35 0.68189,0 1.2398,-0.4725 1.2398,-1.05 0,-0.5775 0.29771,-0.7523 0.66156,-0.38844 0.36385,0.36385 -0.3449,1.43484 -1.575,2.37999 -2.677,2.05684 -4.25352,2.29653 -2.68656,0.40845 z m -165.09213,-6.48618 c -0.48842,-1.28268 -0.38504,-1.38606 0.50381,-0.50382 0.61508,0.6105 0.89161,1.33671 0.61451,1.61382 -0.2771,0.2771 -0.78034,-0.2224 -1.11832,-1.11 z m 176.34213,-0.26382 c -0.70396,-1.13904 0.48747,-1.13904 2.25,0 1.16342,0.75186 1.13967,0.87434 -0.17188,0.88622 -0.83703,0.008 -1.77219,-0.39122 -2.07812,-0.88622 z m -3.68365,-4.84347 c -0.30523,-0.79541 -0.92038,-1.22035 -1.36701,-0.94431 -0.44663,0.27603 -1.04521,-0.10572 -1.33017,-0.84835 -0.28497,-0.74262 -1.09212,-1.12995 -1.79365,-0.86075 -1.75396,0.67305 -1.67986,-2.74714 0.0914,-4.21713 1.11939,-0.92901 1.69548,-0.83703 3.18173,0.50801 1.04626,0.94686 1.58827,2.23821 1.2798,3.04921 -0.42872,1.12721 -0.30982,1.18321 0.59826,0.28179 1.57158,-1.56003 3.47332,-1.40776 3.47332,0.27812 0,0.88295 0.41706,1.15256 1.125,0.72724 0.74439,-0.44721 0.70101,-0.15334 -0.12825,0.86863 -0.68929,0.84948 -1.46202,1.33574 -1.71719,1.08057 -0.25516,-0.25517 -1.00266,-0.0168 -1.6611,0.52961 -0.90244,0.74896 -1.33377,0.63753 -1.75211,-0.45264 z m -134.46635,0.0944 c 0,-0.17183 1.31625,-1.276 2.925,-2.4537 1.80999,-1.32502 2.4386,-1.54236 1.64902,-0.57011 -1.19853,1.4758 -4.57402,3.70728 -4.57402,3.02381 z m 119.94559,-3.35092 c 1.25857,-0.99 2.62945,-1.78653 3.04637,-1.77006 1.0699,0.0423 -3.29089,3.57006 -4.41303,3.57006 -0.50692,0 0.10808,-0.81 1.36666,-1.8 z m -1.12319,-2.39588 c 0.8313,-0.80551 -0.23659,-2.30404 -4.64652,-6.52036 -3.14923,-3.01097 -6.22279,-5.47658 -6.83013,-5.47912 -0.60734,-0.003 -1.76539,1.00439 -2.57344,2.23763 -1.56254,2.37852 -11.75676,6.12483 -4.04796,0.95549 3.68069,-2.32352 5.31816,-4.09776 3.78188,-4.09776 -0.495,0 -1.15208,0.40788 -1.46019,0.9064 -0.30809,0.49852 -1.85075,1.56253 -3.42811,2.36446 -3.34764,1.70194 -3.17528,1.44379 1.53082,-2.29285 3.55264,-2.82078 5.68942,-3.63869 4.50673,-1.72506 -0.435,0.70384 -0.16378,0.86607 0.81806,0.4893 0.80785,-0.30999 1.70819,-0.17633 2.00075,0.29706 0.29258,0.47338 0.96264,0.86069 1.48903,0.86069 0.67527,0 0.67478,-0.34015 -0.002,-1.15518 -0.53661,-0.64657 -0.6346,-1.67963 -0.22256,-2.34631 0.92783,-1.501 4.56104,-0.47824 4.56104,1.28389 0,0.75123 0.54583,1.05166 1.35,0.74307 0.86709,-0.33274 1.35,0.0184 1.35,0.98136 0,0.82467 -0.37702,1.2664 -0.83781,0.98161 -0.4608,-0.28479 -1.07022,-0.14175 -1.35428,0.31787 -0.5591,0.90464 0.80114,0.77261 3.3356,-0.32376 1.46773,-0.63492 1.43221,-0.83194 -0.45,-2.49625 l -2.04351,-1.80693 2.25,0.67212 c 1.2375,0.36966 2.37096,0.77652 2.51881,0.90412 0.62796,0.54198 -0.97838,4.89019 -1.65263,4.47349 -0.40799,-0.25215 -1.03486,0.0157 -1.39305,0.59528 -0.39366,0.63696 -0.26215,0.81326 0.3325,0.44575 0.54106,-0.33439 1.44421,0.10928 2.00701,0.98595 0.95621,1.48947 0.99118,1.49071 0.53356,0.0189 -0.26934,-0.86625 -0.0974,-1.575 0.38205,-1.575 0.47946,0 0.87175,0.6075 0.87175,1.35 0,0.77479 0.81167,1.35 1.90497,1.35 1.43719,0 1.79371,0.42546 1.45187,1.73266 -0.31786,1.21549 -0.0805,1.5897 0.79503,1.25371 0.68647,-0.26342 1.95688,-0.20189 2.82313,0.13673 1.33804,0.52307 1.17505,0.82714 -1.08339,2.02112 -1.86183,0.98432 -2.76074,1.09836 -3,0.3806 -0.18788,-0.56365 -0.91536,-1.02482 -1.6166,-1.02482 -1.12348,0 -1.64101,-1.02972 -1.41688,-2.81912 0.0392,-0.31302 -0.62158,-0.51552 -1.46842,-0.45 -0.84684,0.0655 -1.44332,-0.37256 -1.32551,-0.97349 0.12712,-0.6484 -0.3529,-0.875 -1.18066,-0.55736 -1.1575,0.44418 -1.00251,0.9448 0.9108,2.94186 2.66677,2.78352 2.84872,3.887 0.90668,5.49876 -25.42243,-10.60921 -2.83693,0.60869 -0.37842,-1.53651 z m 8.55142,-2.8303 c -0.2771,-0.2771 -1.00331,-5.8e-4 -1.61382,0.6145 -0.88223,0.88886 -0.77886,0.99223 0.50382,0.50382 0.8876,-0.33798 1.3871,-0.84122 1.11,-1.11832 z m -3.74835,-1.52382 c 0.28492,-0.7425 0.12575,-1.35 -0.35371,-1.35 -0.47946,0 -0.87176,0.6075 -0.87176,1.35 0,0.7425 0.15918,1.35 0.35371,1.35 0.19455,0 0.58683,-0.6075 0.87176,-1.35 z m -7.52547,-3.6 c 0,-0.7425 -0.65473,-1.35 -1.45496,-1.35 -0.9748,0 -1.31066,-0.55185 -1.01769,-1.67217 0.4921,-1.88177 -0.75569,-4.62783 -2.10286,-4.62783 -1.56329,0 -0.36144,4.36887 1.84917,6.72196 2.49494,2.65574 2.72634,2.73451 2.72634,0.92804 z m -199.96875,4.33522 c 0.64969,-0.25998 1.42594,-0.22801 1.725,0.071 0.29907,0.29906 -0.2325,0.51178 -1.18125,0.4727 -1.04844,-0.0432 -1.26171,-0.25645 -0.54375,-0.54374 z m 212.58669,-4.75168 c -0.51997,-0.97157 -1.50575,-1.55146 -2.19063,-1.28865 -1.38672,0.53213 -2.59436,-0.96583 -2.97879,-3.69487 -0.19923,-1.4144 -0.0729,-1.52001 0.58958,-0.49297 0.46373,0.71886 0.66075,1.60213 0.43784,1.96282 -0.22292,0.36067 0.006,0.91017 0.50938,1.22108 0.50308,0.31091 0.91468,-0.09 0.91468,-0.89093 0,-0.80093 0.405,-1.20593 0.9,-0.9 0.495,0.30593 0.9,0.11428 0.9,-0.42589 0,-1.29356 -3.83311,-2.73908 -4.81809,-1.81698 -0.42246,0.39549 -1.63746,-0.0356 -2.7,-0.95781 -1.06255,-0.92228 -2.74191,-2.32165 -3.73191,-3.1097 -1.78421,-1.42026 -1.78307,-1.4282 0.13017,-0.90567 1.17333,0.32045 2.49669,-0.0393 3.375,-0.91768 0.79466,-0.79466 1.44483,-1.01091 1.44483,-0.48056 0,0.53037 0.63141,0.96429 1.40312,0.96429 0.86777,0 1.15611,-0.42923 0.7557,-1.125 -0.37613,-0.65361 -0.30411,-0.81075 0.17189,-0.375 0.81536,0.7464 0.88513,0.97372 1.22005,3.975 0.15365,1.37691 0.27304,1.34861 0.94924,-0.225 0.70083,-1.6309 0.77943,-1.58158 0.83674,0.525 0.0348,1.27875 0.36015,2.62188 0.723,2.98473 0.73794,0.73794 2.93353,7.74027 2.42698,7.74027 -0.17786,0 -0.74881,-0.79491 -1.26878,-1.76648 z m -5.89585,-8.08837 c 0.29059,-0.47016 -0.26844,-1.28125 -1.24226,-1.80243 -1.27498,-0.68235 -1.95076,-0.65606 -2.41426,0.0939 -0.40074,0.64842 -0.24912,0.79764 0.40173,0.3954 0.58517,-0.36166 1.28313,-0.0266 1.58535,0.76094 0.62539,1.62974 0.93931,1.73357 1.66944,0.55219 z m -17.11459,-1.01393 c -0.701,-1.13426 0.61504,-3.53123 1.9388,-3.53123 0.71341,0 1.2537,0.90502 1.2537,2.1 0,1.99622 -2.22644,2.99434 -3.1925,1.43123 z m 1.16914,-6.34939 c -4.13034,-4.14251 -9.57306,-10.32113 -12.09495,-13.73027 -6.3787,-8.62286 -14.75952,-23.05157 -13.38935,-23.05157 0.18471,0 1.63913,2.32875 3.23205,5.175 6.43968,11.50652 13.83174,21.16671 24.52906,32.05545 3.3569,3.41696 5.90758,6.40854 5.66817,6.64794 -0.2394,0.23941 -3.81464,-2.95405 -7.94498,-7.09656 z m 6.88742,1.77911 c -0.37956,-0.61414 -0.24869,-0.79587 0.32002,-0.44439 0.5292,0.32707 1.1673,0.0859 1.418,-0.53594 0.27499,-0.68208 0.484,-0.50578 0.52687,0.44439 0.0804,1.78106 -1.29433,2.10634 -2.26489,0.53594 z m -3.05322,-5.24068 c -0.74713,-1.39603 -0.68927,-1.67874 0.26833,-1.31127 0.67146,0.25766 1.22084,1.05854 1.22084,1.77974 0,1.76313 -0.35454,1.6516 -1.48917,-0.46847 z m -32.74834,-38.53826 c -0.24405,-0.39488 -0.0716,-1.30613 0.38311,-2.025 0.67998,-1.07489 0.82928,-1.01786 0.84062,0.32109 0.008,0.99966 0.41485,1.38023 1.05283,0.98594 0.64377,-0.39787 0.79476,-0.24688 0.39688,0.39689 -0.74358,1.20313 -2.03262,1.35795 -2.67344,0.32108 z m -2.12725,-6.93203 c -0.53172,-1.7325 -0.66762,-3.15 -0.30201,-3.15 0.36562,0 1.0998,1.4175 1.63152,3.15 0.53172,1.7325 0.66762,3.15 0.30201,3.15 -0.36562,0 -1.0998,-1.4175 -1.63152,-3.15 z m -2.81786,-9.13415 c -1.56714,-6.02884 -3.07902,-14.75421 -2.63368,-15.19956 0.2358,-0.23579 1.35193,3.64308 2.48029,8.61972 1.12837,4.97663 1.82719,9.27281 1.55294,9.54706 -0.27424,0.27425 -0.90405,-1.061 -1.39955,-2.96722 z m -57.96113,126.9404 c -0.29907,-0.29906 -1.07532,-0.33103 -1.72501,-0.071 -0.71795,0.2873 -0.5047,0.50056 0.54376,0.54374 0.94874,0.0391 1.48031,-0.17364 1.18125,-0.4727 z m 67.21875,-2.83125 c 0.37125,-0.37125 1.1475,-0.675 1.72499,-0.675 0.5775,0 1.16217,-1.0125 1.29926,-2.25 0.21963,-1.98251 0.13144,-2.05807 -0.7418,-0.63555 -0.61721,1.00546 -1.60464,1.4197 -2.61767,1.09818 -0.96794,-0.30722 -1.8269,0.005 -2.12119,0.77256 -0.7591,1.97819 0.97506,3.17115 2.45641,1.68981 z m 15.37499,-4.725 c -0.30592,-0.495 -0.93733,-0.9 -1.40311,-0.9 -0.46579,0 -0.84689,0.405 -0.84689,0.9 0,0.495 0.63141,0.9 1.40312,0.9 0.77172,0 1.15281,-0.405 0.84688,-0.9 z m 3.15,-1.27639 c 0,-0.20702 -0.24582,-1.01702 -0.54629,-1.8 -0.77558,-2.02114 -2.06763,-1.76602 -1.90625,0.37639 0.0746,0.99 0.65691,1.8 1.29406,1.8 0.63717,0 1.15848,-0.16938 1.15848,-0.37639 z m 3.43478,-2.61802 c 0.15663,-1.32307 0.62497,-2.40559 1.04074,-2.40559 0.41579,0 0.54415,0.81 0.28526,1.8 -0.27359,1.04621 -0.0276,1.8 0.58737,1.8 0.58194,0 0.80976,-0.4018 0.50625,-0.89287 -0.30349,-0.49108 -0.13721,-1.60483 0.36953,-2.475 0.82549,-1.41753 0.92419,-1.37145 0.9487,0.44287 0.015,1.11375 0.36487,2.025 0.77737,2.025 0.41251,0 0.75001,-1.16707 0.75001,-2.59348 0,-2.54877 -0.0479,-2.57343 -2.77501,-1.4301 -1.52625,0.63988 -2.91982,1.90819 -3.09685,2.81849 -0.17701,0.9103 -0.78451,2.2272 -1.35,2.92645 -0.80804,0.9992 -0.73915,1.177 0.32185,0.83059 0.7425,-0.24241 1.47816,-1.52328 1.63478,-2.84636 z m 189.48498,-34.08316 c 0.55728,-0.89233 1.52331,-1.62243 2.14674,-1.62243 0.62343,0 1.1335,-0.4289 1.1335,-0.95312 0,-0.52421 0.37729,-0.71993 0.83843,-0.43494 0.46113,0.285 1.4087,-0.29603 2.10572,-1.29116 0.69702,-0.99513 1.463,-1.61362 1.70219,-1.37444 0.23919,0.23918 1.59489,-0.77589 3.01266,-2.25572 1.41777,-1.47984 2.11712,-2.69062 1.55411,-2.69062 -0.56302,0 -1.43648,0.70875 -1.94102,1.575 -0.50454,0.86625 -0.92967,1.25079 -0.94472,0.85453 -0.015,-0.39627 -2.55862,1.08086 -5.65237,3.28248 -7.61458,5.41881 -18.43477,10.74895 -27.91844,13.7529 -18.82217,8.8417 12.91437,6.64271 23.9632,-8.84248 z M -652.1452,644.32992 c -0.24573,-14.45968 2.5e-4,-19.69834 1.19384,-25.4256 2.07636,-9.96305 2.21843,-10.36354 3.6763,-10.36354 0.70915,0 1.29287,-0.70875 1.29718,-1.575 0.004,-0.86625 0.26709,-3.8025 0.58398,-6.525 l 0.57615,-4.95 -1.87726,1.66317 c -1.93962,1.7184 -4.28862,1.27911 -3.21025,-0.60036 0.33539,-0.58454 -0.36675,-0.17883 -1.56032,0.90158 -1.19357,1.08041 -3.99263,2.76172 -6.22013,3.73624 -5.02545,2.19862 -9.9221,5.78433 -11.7,8.56766 -0.7425,1.1624 -2.16,3.26817 -3.15,4.67949 -3.18081,4.53447 -2.7522,28.31508 0.56613,31.41056 0.73498,0.68561 0.88925,0.26284 0.56737,-1.55482 -0.62172,-3.51076 0.83451,-3.98624 1.59561,-0.52099 1.65448,7.53281 8.28647,15.20782 15.27089,17.67256 1.485,0.52404 2.7,0.98506 2.7,1.02447 0,0.0394 -0.13927,-8.12377 -0.30949,-18.14042 z m -19.86945,-8.41413 c 0.0432,-1.04846 0.25644,-1.26171 0.54375,-0.54376 0.25998,0.64969 0.22801,1.42594 -0.0711,1.72501 -0.29907,0.29906 -0.51178,-0.23251 -0.4727,-1.18125 z m 0.1044,-8.02501 c 0.0183,-1.485 0.22005,-1.98354 0.44824,-1.10787 0.22818,0.87567 0.21318,2.09067 -0.0334,2.7 -0.24654,0.60933 -0.43324,-0.10713 -0.41489,-1.59213 z m 44.81758,31.95 c 0.003,-0.7425 -1.61498,-3.68319 -3.59448,-6.53487 -7.65966,-11.03456 -12.37897,-23.04295 -13.9669,-35.53912 -0.33016,-2.5982 -0.93838,-4.93295 -1.35161,-5.18835 -2.23041,-1.37846 -5.53882,37.50484 -3.88307,45.63724 0.61299,3.01075 1.7937,3.28126 13.57223,3.10953 7.53282,-0.10984 9.22005,-0.38137 9.22383,-1.48443 z m -33.29304,0.5602 c 0,-0.18689 -0.70875,-0.89564 -1.575,-1.575 -1.42745,-1.11948 -1.45928,-1.08765 -0.3398,0.3398 1.17574,1.49918 1.9148,1.97593 1.9148,1.2352 z m 400.61481,-7.5352 c 1.11948,-1.42745 1.08765,-1.45928 -0.33981,-0.3398 -1.49917,1.17573 -1.97593,1.9148 -1.23519,1.9148 0.18688,0 0.89563,-0.70875 1.575,-1.575 z m -374.8,-29.19375 c -0.28731,-0.71795 -0.50057,-0.5047 -0.54375,0.54376 -0.0391,0.94874 0.17363,1.48031 0.47269,1.18125 0.29907,-0.29907 0.33104,-1.07532 0.0711,-1.72501 z m -0.9,-4.5 c -0.28731,-0.71795 -0.50057,-0.5047 -0.54375,0.54376 -0.0391,0.94874 0.17363,1.48031 0.47269,1.18125 0.29907,-0.29907 0.33104,-1.07532 0.0711,-1.72501 z m -0.89441,-6.80625 c -0.22638,-0.86625 -0.41159,-0.1575 -0.41159,1.575 0,1.7325 0.18521,2.44125 0.41159,1.575 0.22637,-0.86625 0.22637,-2.28375 0,-3.15 z m -7.43266,-26.46743 c 2.51577,-7.79962 2.84828,-9.75358 1.41609,-8.32139 -0.49289,0.49289 -1.04237,2.09264 -1.22106,3.555 -0.33698,2.75772 -2.64859,10.00015 -4.25815,13.34108 -0.87141,1.80876 -0.84791,1.8233 0.41347,0.25589 0.73556,-0.91404 2.3779,-4.88779 3.64965,-8.83058 z m -5.24964,5.74493 c 0.1248,-0.63112 0.021,-0.73237 -0.2306,-0.225 -0.25162,0.50738 -0.85265,0.9225 -1.33561,0.9225 -0.48296,0 -0.60375,-0.44393 -0.26841,-0.98651 0.37452,-0.606 -0.0102,-0.86636 -0.99731,-0.675 -0.88385,0.17133 -1.78595,0.84892 -2.00467,1.50576 -0.28057,0.8426 0.33954,1.1076 2.10602,0.9 1.37702,-0.16184 2.60578,-0.81062 2.73058,-1.44175 z m 13.55796,-1.3275 c -0.24967,-0.61875 -0.45395,-0.1125 -0.45395,1.125 0,1.2375 0.20428,1.74375 0.45395,1.125 0.24967,-0.61875 0.24967,-1.63125 0,-2.25 z m -6.06711,-5.12201 c -0.0614,-1.21194 -0.13921,-1.21915 -0.57161,-0.053 -0.27531,0.7425 -0.87318,2.16 -1.3286,3.15 -0.81479,1.7712 -0.80564,1.77204 0.57161,0.053 0.76981,-0.96086 1.36768,-2.37836 1.3286,-3.15 z m -7.12895,-5.39987 c 0,-1.21533 -1.64064,-2.05784 -2.71468,-1.39404 -0.50307,0.31091 -0.68167,0.94232 -0.39688,1.40312 0.67561,1.09314 3.11156,1.08604 3.11156,-0.009 z m 290.74483,94.43031 c -11.83281,-1.23447 -21.05831,-3.32537 -34.19783,-7.7507 -34.31867,-11.10234 -69.54566,-38.99526 -85.5127,-69.56919 -9.00162,-17.84779 -12.68158,-40.20053 -9.52913,-57.88157 5.03796,-28.2562 22.40167,-50.40543 50.44483,-64.34766 26.20825,-13.02996 56.63643,-15.32345 90.9,-6.85149 10.51984,2.60112 14.97734,4.29055 27,10.23321 8.40857,4.15625 17.61642,9.51762 22.13044,12.88568 7.444,5.55423 7.77281,5.7001 8.87406,3.93672 1.34138,-2.1479 1.25157,-2.23392 -11.0021,-10.53782 -9.39046,-6.3636 -22.74606,-13.08137 -35.7524,-17.98321 -11.1421,-4.19924 -10.93672,-4.65331 0.45,-0.99482 22.30749,7.16726 37.98966,15.98138 51.075,28.70656 7.59228,7.38329 9.53263,10.67516 2.79829,4.74736 -4.64198,-4.08604 -5.04235,-4.23141 -6.57331,-2.38671 -0.84991,1.02409 -0.69862,1.66157 0.73446,3.09466 1.63249,1.63248 1.84759,1.65972 2.25186,0.28522 0.29907,-1.01681 0.39183,-0.89152 0.28034,0.37864 -0.19297,2.19829 13.39982,17.73658 15.02557,17.17616 0.55429,-0.19108 2.12154,-0.033 3.48279,0.35124 2.38196,0.67238 3.43193,-0.27806 1.575,-1.4257 -0.495,-0.30593 -0.9,-0.98692 -0.9,-1.51332 0,-0.58509 0.61217,-0.49222 1.575,0.23894 0.86625,0.65781 0.3041,-0.20385 -1.24924,-1.9148 -3.79633,-4.18155 -5.39019,-7.82026 -5.22266,-11.92308 0.10451,-2.55919 -0.3018,-3.64835 -1.62523,-4.35662 -3.68594,-1.97266 -9.65089,-9.23544 -11.0536,-13.4586 -1.80506,-5.43455 -5.17439,-8.73484 -14.82427,-14.52056 -4.2075,-2.52266 -7.785,-4.9276 -7.94999,-5.34431 -0.16501,-0.41671 -0.84001,-0.75765 -1.50001,-0.75765 -0.65999,0 -1.33499,-0.31972 -1.5,-0.71049 -0.40744,-0.96493 -8.29563,-5.6684 -13.75103,-8.19929 -5.83148,-2.70536 -14.79037,-4.42216 -15.66781,-3.00244 -0.35014,0.56654 -1.43414,1.02382 -2.40889,1.01618 -4.44196,-0.0348 -13.02227,1.32709 -13.02227,2.06696 0,0.45151 -1.51875,1.48097 -3.375,2.2877 -2.74893,1.19468 -3.0411,1.54013 -1.575,1.86226 0.99,0.21753 2.61,1.00415 3.6,1.74805 1.6497,1.23961 1.65803,1.30407 0.0997,0.77197 -0.93517,-0.31932 -6.60517,-0.69039 -12.6,-0.82461 -11.88794,-0.26615 -16.2997,-1.53244 -16.2997,-4.67842 0,-1.28434 1.51195,-2.543 5.36846,-4.46911 6.14988,-3.07152 12.93285,-3.4312 18.67764,-0.99041 4.3263,1.83811 11.04513,1.80698 17.84185,-0.0827 4.53804,-1.26169 6.29904,-1.33913 10.91807,-0.48013 6.21738,1.15624 20.42931,8.02269 28.92271,13.97392 3.06421,2.14704 7.39377,4.94641 9.62127,6.22081 5.75906,3.29488 10.6626,8.5371 11.74476,12.55593 0.93687,3.4793 7.66336,12.24467 9.49075,12.36753 1.91793,0.12896 3.96449,3.39712 3.96449,6.3309 0,3.24627 2.85826,8.57507 5.3006,9.88217 1.86852,1 6.3994,9.70231 6.3994,12.29111 0,1.05519 -0.585,1.86209 -1.35,1.86209 -0.7425,0 -1.35,-0.27249 -1.35,-0.60554 0,-0.87542 -4.28072,-2.69446 -6.34085,-2.69446 -1.55935,0 -1.41386,0.47909 1.29814,4.275 8.22141,11.50726 13.93114,23.96608 17.42641,38.025 2.00503,8.06477 2.35061,11.42889 2.35759,22.94999 0.009,14.97406 -1.09007,21.08811 -5.84393,32.50739 -9.65529,23.19304 -29.12932,40.43187 -55.69736,49.3045 -5.1975,1.73575 -12.97557,3.76948 -17.28459,4.51941 -10.1287,1.76274 -27.02239,2.40869 -36.67058,1.40213 z m 20.33399,-1.57499 c -0.23507,-0.38037 1.17771,-0.5385 3.13952,-0.3514 4.44312,0.42372 18.68873,-2.09215 27.27261,-4.81652 8.04809,-2.55433 21.30565,-8.55611 20.7797,-9.40711 -0.21531,-0.34837 0.14244,-0.63341 0.79501,-0.63341 1.25838,0 7.73434,-3.74819 7.73434,-4.47652 0,-0.23634 -0.46757,-0.14073 -1.03906,0.21246 -0.66444,0.41066 -0.79386,0.24544 -0.35896,-0.45824 0.37405,-0.60522 1.20857,-0.89762 1.85449,-0.64975 0.64593,0.24786 1.92122,-0.43327 2.83397,-1.51364 l 1.65956,-1.96431 -2.25,1.8 -2.25,1.8 1.74321,-2.05674 c 0.95877,-1.1312 2.22168,-1.87313 2.80646,-1.64873 0.58479,0.2244 3.04035,-1.64154 5.4568,-4.14652 2.41644,-2.505 3.88728,-4.27041 3.26853,-3.92316 -0.61875,0.34726 -1.125,0.26525 -1.125,-0.18225 0,-1.15008 3.19045,-3.90214 3.80792,-3.28468 0.28151,0.28151 0.81747,0.0173 1.19102,-0.5871 0.434,-0.70223 0.3041,-0.86712 -0.35988,-0.45676 -1.61666,0.99915 -1.22435,-0.78575 0.71444,-3.25053 3.32998,-4.23337 7.98824,-14.69361 10.5381,-23.66353 2.29689,-8.08003 2.55336,-10.33394 2.50902,-22.05 -0.0689,-18.21583 -2.24238,-27.28475 -10.68118,-44.56825 -2.66347,-5.45503 -6.70494,-12.39561 -8.98106,-15.42351 -4.66337,-6.20366 -5.30589,-7.97505 -1.71933,-4.74012 l 2.41905,2.18189 -1.86396,-2.46278 c -5.58035,-7.37309 -26.24408,-28.07358 -23.35108,-23.39262 1.25117,2.02444 -0.49749,1.14609 -6.51298,-3.27147 -3.27804,-2.40728 -7.67468,-5.4942 -9.77032,-6.85983 -2.09563,-1.36563 -3.5518,-2.90111 -3.23594,-3.41219 0.32046,-0.5185 0.1387,-0.66001 -0.41119,-0.32016 -1.13174,0.69945 -16.48559,-6.65243 -15.89357,-7.61032 0.46953,-0.75972 -2.35494,-1.96475 -3.02787,-1.29182 -0.25915,0.25916 0.0688,0.47119 0.72881,0.47119 0.66,0 0.98797,0.21203 0.72882,0.47118 -0.72166,0.72166 -3.47993,-0.56037 -2.97241,-1.38155 0.24534,-0.39697 -0.30411,-0.52559 -1.22099,-0.28582 -0.91689,0.23978 -2.32587,-0.22283 -3.13106,-1.02802 -0.80518,-0.80518 -1.9793,-1.39615 -2.60916,-1.31325 -2.68681,0.35363 -4.73265,-0.0981 -3.62632,-0.80065 1.54719,-0.98255 -13.02425,-4.38033 -26.31888,-6.13707 -23.84239,-3.15049 -48.85564,0.9829 -69.36719,11.46281 -11.30479,5.77593 -23.79397,15.70475 -30.39601,24.16464 -13.94961,17.87512 -20.30346,39.48179 -17.76632,60.41558 15.5947,64.57724 66.41942,103.91145 128.10589,110.56904 10.06951,0.97367 20.67471,1.11656 20.15245,0.27154 z m 68.27121,-28.10844 c 1.93342,-1.98 3.71781,-3.6 3.96531,-3.6 0.2475,0 -1.13189,1.62 -3.06531,3.6 -1.93341,1.98 -3.71781,3.6 -3.96531,3.6 -0.2475,0 1.1319,-1.62 3.06531,-3.6 z m 22.6648,-38.8688 c -0.28729,-0.71795 -0.50056,-0.5047 -0.54374,0.54376 -0.0391,0.94874 0.17364,1.48031 0.4727,1.18125 0.29906,-0.29907 0.33103,-1.07532 0.071,-1.72501 z m 1.78126,-9.95625 c -0.24967,-0.61875 -0.45396,-0.1125 -0.45396,1.125 0,1.2375 0.20429,1.74375 0.45396,1.125 0.24966,-0.61875 0.24966,-1.63125 0,-2.25 z m 0,-20.69999 c -0.24967,-0.61875 -0.45396,-0.1125 -0.45396,1.125 0,1.2375 0.20429,1.74375 0.45396,1.125 0.24966,-0.61875 0.24966,-1.63125 0,-2.25 z m -0.88126,-5.34375 c -0.2873,-0.71796 -0.50056,-0.50471 -0.54374,0.54375 -0.0391,0.94874 0.17364,1.48031 0.4727,1.18125 0.29906,-0.29907 0.33103,-1.07532 0.071,-1.725 z m -13.2148,-50.57105 c 0,-0.18689 -0.70875,-0.89564 -1.575,-1.575 -1.42745,-1.11949 -1.45928,-1.08765 -0.3398,0.3398 1.17573,1.49917 1.9148,1.97593 1.9148,1.2352 z m -34.2,-22.5 c 0,-0.18689 -0.70875,-0.89564 -1.575,-1.575 -1.42745,-1.11949 -1.45928,-1.08765 -0.3398,0.3398 1.17573,1.49917 1.9148,1.97593 1.9148,1.2352 z m -28.8,-18.1102 c -1.2375,-0.70742 -2.655,-1.28622 -3.15,-1.28622 -0.495,0 0.1125,0.5788 1.35,1.28622 1.2375,0.70742 2.655,1.28621 3.15,1.28621 0.495,0 -0.1125,-0.57879 -1.35,-1.28621 z m -41.64374,-20.79375 c -0.29906,-0.29906 -1.07532,-0.33104 -1.72501,-0.0711 -0.71795,0.28731 -0.5047,0.50057 0.54376,0.54375 0.94874,0.0391 1.48031,-0.17363 1.18125,-0.47269 z m -5.15626,-1.01955 c -1.2375,-0.22999 -2.4525,-0.73071 -2.7,-1.11271 -0.2475,-0.382 -1.8675,-0.47194 -3.6,-0.19987 -2.97783,0.46763 -3.02702,0.53024 -0.9,1.14556 1.2375,0.35799 3.87,0.63611 5.85,0.61804 2.3368,-0.0213 2.81051,-0.17958 1.35,-0.45102 z m -9.45,-2.0367 c 0.30593,-0.495 3.87359,-0.96068 7.92812,-1.03485 4.05454,-0.0742 6.15688,-0.29408 4.67188,-0.48869 -4.56151,-0.59781 -5.68123,-1.25402 -3.6,-2.10981 1.49695,-0.61552 1.53915,-0.75079 0.25066,-0.80339 -1.71568,-0.0701 -11.50066,4.04554 -11.50066,4.83721 0,0.84715 1.66173,0.55138 2.25,-0.40047 z m 131.97984,85.725 c -0.98208,-2.29504 -0.95986,-2.34798 0.30554,-0.72799 0.75054,0.96086 1.36462,2.07461 1.36462,2.475 0,1.36792 -0.61049,0.72933 -1.67016,-1.74701 z m -5.96968,-10.68581 c -0.85077,-1.29845 -1.10204,-2.08589 -0.55835,-1.74988 1.03896,0.64211 3.13441,4.11069 2.48337,4.11069 -0.20799,0 -1.07424,-1.06237 -1.92502,-2.36081 z m -209.539,-48.98878 c 1.08416,-1.2102 3.31166,-2.96666 4.95,-3.90325 3.54443,-2.02623 2.64876,-1.06913 -2.87119,3.06811 -2.98158,2.23471 -3.52998,2.45503 -2.07881,0.83514 z m 11.07881,-7.4305 c 0,-1.35784 15.79285,-9.42701 16.69152,-8.52834 0.26024,0.26024 -1.76476,1.38147 -4.49999,2.49162 -3.09715,1.25705 -4.75244,2.40482 -4.38805,3.04266 0.32181,0.56331 0.26753,0.7378 -0.12063,0.38776 -0.38815,-0.35004 -2.27557,0.16444 -4.19428,1.14329 -1.91871,0.97885 -3.48857,1.63721 -3.48857,1.46301 z m 138.6,-7.87298 c 0,-0.52421 0.405,-0.70281 0.9,-0.39688 0.495,0.30593 0.9,0.73483 0.9,0.95311 0,0.21829 -0.405,0.39689 -0.9,0.39689 -0.495,0 -0.9,-0.4289 -0.9,-0.95312 z m -119.04,-1.85856 c 0.61051,-0.61508 1.33672,-0.8916 1.61382,-0.61451 0.2771,0.2771 -0.2224,0.78035 -1.11,1.11833 -1.28268,0.48841 -1.38605,0.38503 -0.50382,-0.50382 z m 114.94995,-0.25632 c -1.65189,-1.20789 -1.6245,-1.26121 0.57793,-1.125 1.2716,0.0787 2.31204,0.64925 2.31206,1.268 8e-5,1.45814 -0.75114,1.42097 -2.88999,-0.143 z m -31.90995,-1.432 c -1.64517,-1.06319 -0.22418,-1.06319 2.25,0 1.18687,0.51001 1.34016,0.79034 0.45,0.82296 -0.7425,0.0272 -1.9575,-0.34312 -2.7,-0.82296 z m -73.06875,-1.5148 c 0.64969,-0.25999 1.42595,-0.22801 1.72501,0.0711 0.29906,0.29906 -0.23251,0.51178 -1.18125,0.4727 -1.04846,-0.0432 -1.26171,-0.25645 -0.54376,-0.54375 z m 97.3674,-0.84639 -2.24865,-1.3139 2.25,0.59935 c 2.50652,0.66768 3.18244,1.0933 2.62365,1.6521 -0.207,0.20699 -1.38825,-0.2149 -2.625,-0.93755 z m -92.69865,-0.29769 c 0.7425,-0.50246 2.12625,-0.91976 3.07501,-0.92734 2.30259,-0.0184 1.58423,0.49673 -1.72501,1.23695 -1.97182,0.44107 -2.33591,0.35757 -1.35,-0.30961 z m 6.54213,-1.56481 c 0.87567,-0.22819 2.09067,-0.21318 2.7,0.0333 0.60933,0.24653 -0.10713,0.43323 -1.59213,0.41489 -1.485,-0.0183 -1.98354,-0.22005 -1.10787,-0.44824 z m 7.2,-0.9 c 0.87567,-0.22819 2.09067,-0.21318 2.7,0.0333 0.60933,0.24653 -0.10713,0.43323 -1.59213,0.41489 -1.485,-0.0183 -1.98354,-0.22005 -1.10787,-0.44824 z m 9,-0.9 c 0.87567,-0.22819 2.09067,-0.21318 2.7,0.0333 0.60933,0.24653 -0.10713,0.43323 -1.59213,0.41489 -1.485,-0.0183 -1.98354,-0.22005 -1.10787,-0.44824 z"
       id="path4149"
       inkscape:connector-curvature="0"
       sodipodi:nodetypes="csccssscscccscsssssssssssssssssssssscsscscssccsssscccsssssscccscsscsssssscscscsssscsscscssssssscssscscssssssssssssssscscsssscsssccsscssssssscsssssssssssscsscssscscssssssssssssccccsssssssssssssssssssscssssscscsssssssssssscssssssssscscsssssscccccsscccsscssccccccccscsssscsscssssssssscssscscccssscssssccccssssscsscscccscsssccsccssssssscscsssssssssccscsccsssccscsscssscsssssscccccssscccsssscsscsscssssssscsscccsssscsssscccssscssssssccssssssssscscscccccssssscscssscsccsssssscscssscccscsscssssscsccssscscsssssssssssscccccccccccsscsscssssssssccsccccscccsccssssssscsccssssssscssscssssscccssssssssssssssscssssssssscscsssssssssssssssssssssssssssssscccssssscscscccssscsscssssssscsssscsscsssssscssscccsssssccccccscccscccccccssssssssssssscccccsssscssssscssssssssssssssssssssssssssscsssccssscscccccscscsssssccccccccccccccc" />
    <path
       style="fill:none;fill-rule:evenodd;stroke:#000000;stroke-width:1px;stroke-linecap:butt;stroke-linejoin:miter;stroke-opacity:1"
       d="m -481.39897,498.79861 c 7.8816,-9.95725 16.69144,-18.67684 27.42206,-24.8354 8.83848,-6.09471 17.75596,-9.21217 25.67223,-12.54024 l 14.64721,-3.03046 c 7.23943,-1.71184 14.47885,-2.20544 21.71828,-3.03046 l 10.10153,-0.50508"
       id="path4199"
       inkscape:connector-curvature="0"
       sodipodi:nodetypes="cccccc" />
    <text
       xml:space="preserve"
       style="font-style:normal;font-weight:normal;font-size:37.5px;line-height:125%;font-family:sans-serif;letter-spacing:0px;word-spacing:0px;fill:#000000;fill-opacity:1;stroke:none;stroke-width:1px;stroke-linecap:butt;stroke-linejoin:miter;stroke-opacity:1"
       x="-485.43521"
       y="581.94806"
       id="text4201"
       sodipodi:linespacing="125%"><tspan
         sodipodi:role="line"
         id="tspan4203"
         x="-485.43521"
         y="581.94806"
         style="font-style:normal;font-variant:normal;font-weight:bold;font-stretch:normal;font-size:43.75px;font-family:'Comic Sans MS';-inkscape-font-specification:'Comic Sans MS Bold'">Tamburello</tspan></text>
  </g>
</svg>
